<svg width="294.97" height="55.785" viewBox="0 -11 257.795 48.755"><path d="M65.662 13.792v2.366h-4.386v2.661H56.15a3.01 3.01 0 0 0-2.81-1.922c-.296 0-.542.05-.838.148l-2.71-2.711c.837-1.035 1.38-2.317 1.38-3.795 0-.148-.05-.296-.05-.493l12.47-7.985L55.213-11 26.971 7.089l8.379 13.06 7.048-4.534a5.7 5.7 0 0 0 4.978.395l3.056 3.056c-.05.246-.148.542-.148.837a2.987 2.987 0 0 0 3.007 3.007c.986 0 1.824-.493 2.415-1.183h5.52v2.662h4.387v2.365h4.386V13.792zM25 13.545l2.858 5.126h4.584l-5.225-8.625z" xmlns="http://www.w3.org/2000/svg" fill="#FFF"/><path d="M96.047 30.365c.355.311.355.71-.044 1.107-3.272 3.45-7.74 5.53-13.047 5.53-9.816 0-17.955-7.873-17.955-17.912S73.134 1 82.956 1c5.219 0 9.82 2.08 13.136 5.573.396.397.396.796.044 1.062l-2.831 2.296c-.352.314-.663.314-1.018-.041-1.9-1.991-5.174-4.071-9.153-4.071-7.962 0-13.136 6.636-13.136 13.269 0 6.68 5.174 13.091 13.136 13.091 3.934 0 7.12-1.988 9.02-3.935.355-.4.71-.444 1.062-.177zm8.136-23.703a2.635 2.635 0 0 1-2.65-2.654 2.66 2.66 0 0 1 2.65-2.654 2.66 2.66 0 0 1 2.654 2.654 2.635 2.635 0 0 1-2.654 2.654m1.725 8.136h-3.405c-.444 0-.705.31-.705.707v19.416c0 1.018.616 1.77 1.678 1.77h2.48c.396 0 .662-.267.662-.752V15.508a.705.705 0 0 0-.71-.71m26.937 0h-3.805c-.396 0-.53.222-.704.663l-6.017 13.268-6.06-13.268c-.177-.444-.31-.663-.707-.663h-3.981c-.397 0-.619.222-.441.663l10.215 20.92c.133.31.488.531.752.531h.443a.91.91 0 0 0 .752-.532l10.127-20.92c.222-.396-.178-.662-.574-.662m7.515-8.136a2.635 2.635 0 0 1-2.651-2.654 2.66 2.66 0 0 1 2.653-2.654 2.66 2.66 0 0 1 2.654 2.654 2.635 2.635 0 0 1-2.654 2.654m1.728 8.136h-3.408c-.444 0-.707.31-.707.707v19.416c0 1.018.618 1.77 1.68 1.77h2.477c.396 0 .662-.267.662-.752V15.508a.705.705 0 0 0-.707-.71m24.458 17.913c.266.397.264.705-.044 1.018-1.947 1.855-4.515 3.272-7.61 3.272-6.103 0-11.321-4.908-11.321-11.189 0-6.325 5.218-11.325 11.324-11.325 3.095 0 5.616 1.284 7.43 3.098.307.31.307.665.044 1.017l-1.68 2.122c-.267.355-.533.399-1.063.044-1.106-1.104-2.61-1.769-4.6-1.769-4.201 0-6.81 3.275-6.81 6.769 0 3.45 2.609 6.766 6.854 6.766 1.991 0 3.405-.752 4.69-2.035.485-.397.795-.264 1.106.088z" fill="#FFF"/><path d="M192.95 5.905h-17.864v10.98h10.35c.451 0 .764.314.764.765v3.372c0 .497-.316.77-.764.77h-10.35l.043 10.302h17.82c.452 0 .765.318.765.767v3.372c0 .451-.313.767-.765.767h-22.182a.733.733 0 0 1-.765-.765V1.72c0-.406.271-.72.72-.72h22.23c.451 0 .767.314.767.718v3.467c0 .451-.318.72-.767.72zM229.534 1c.361 0 .63.406.361.81l-13.771 20.52v13.904c0 .494-.268.765-.717.765h-2.613c-1.125 0-1.755-.765-1.755-1.8V22.33L197.272 1.808c-.226-.4 0-.807.403-.807h4.546c.36 0 .539.316.764.674l10.575 15.572 10.575-15.572c.27-.358.406-.674.812-.674zm27.495 4.904h-17.865v10.98h10.35c.45 0 .766.314.766.765v3.372c0 .497-.318.77-.767.77h-10.35l.046 10.302h17.82c.452 0 .765.318.765.767v3.372c0 .451-.316.767-.765.767h-22.185a.733.733 0 0 1-.764-.765V1.72c0-.406.27-.72.716-.72h22.233c.452 0 .765.314.765.718v3.467c0 .451-.316.72-.765.72" fill="#00b9ff"/></svg>